<?xml version="1.0" encoding="UTF-8" standalone="no"?>
<svg width="10px" height="16px" viewBox="0 0 10 16" version="1.1" xmlns="http://www.w3.org/2000/svg" xmlns:xlink="http://www.w3.org/1999/xlink">
    <!-- Generator: Sketch 3.7 (28169) - http://www.bohemiancoding.com/sketch -->
    <title>icon_action_move-right.svg</title>
    <desc>Created with Sketch.</desc>
    <defs></defs>
    <g id="Page-1" stroke="none" stroke-width="1" fill="none" fill-rule="evenodd">
        <g id="320" transform="translate(-282.000000, -360.000000)" fill="#B8B397">
            <g id="galery" transform="translate(12.000000, 167.000000)">
                <g id="Group-2" transform="translate(252.000000, 179.000000)">
                    <path d="M23.9355582,21.9982384 L18.1825805,16.333352 C18.0658799,16.2203285 18,16.0648124 18,15.902352 C18,15.7398917 18.0658799,15.5843755 18.1825805,15.471352 L19.4955805,14.178352 C19.7391643,13.9405493 20.1279968,13.9405493 20.3715805,14.178352 L27.8165805,21.508352 C27.9332812,21.6213755 27.9991611,21.7768917 27.9991611,21.939352 C27.9991611,21.9589742 27.9982,21.9784951 27.9963044,21.997852 C27.9982,22.017209 27.9991611,22.0367299 27.9991611,22.056352 C27.9991611,22.2188124 27.9332812,22.3743285 27.8165805,22.487352 L27.8165805,22.487352 L20.3715805,29.817352 C20.1279968,30.0551547 19.7391643,30.0551547 19.4955805,29.817352 L18.1825805,28.524352 C18.0658799,28.4113285 18,28.2558124 18,28.093352 C18,27.9308917 18.0658799,27.7753755 18.1825805,27.662352 L23.9355582,21.9982384 Z" id="icon_action_move-right.svg"></path>
                </g>
            </g>
        </g>
    </g>
</svg>