<?xml version="1.0" encoding="utf-8"?>
<!-- Generator: Adobe Illustrator 25.2.1, SVG Export Plug-In . SVG Version: 6.00 Build 0)  -->
<svg version="1.1" xmlns="http://www.w3.org/2000/svg" xmlns:xlink="http://www.w3.org/1999/xlink" x="0px" y="0px"
	 viewBox="0 0 94.9 75.6" style="enable-background:new 0 0 94.9 75.6;" xml:space="preserve">
<style type="text/css">
	.st0{fill:#F9F5E1;}
</style>
<g id="Слой_2">
</g>
<g id="Слой_1">
	<g>
		<path class="st0" d="M70.2,19.8c-1.9-1.8-4.8-1.7-6.6,0.1c-1.8,1.9-1.7,4.8,0.1,6.6c3.1,3,4.8,6.9,4.8,11.2s-1.7,8.2-4.8,11.2
			c-1.9,1.8-1.9,4.8-0.1,6.6c0.9,1,2.2,1.4,3.4,1.4c1.2,0,2.3-0.4,3.3-1.3c4.9-4.7,7.6-11.1,7.6-18C77.8,31,75.1,24.6,70.2,19.8z"/>
		<path class="st0" d="M80.9,6.4C79,4.7,76,4.8,74.3,6.8c-1.7,1.9-1.6,4.9,0.4,6.6c6.9,6.2,10.9,15.1,10.9,24.4s-4,18.2-10.9,24.4
			c-1.9,1.7-2.1,4.7-0.4,6.6c0.9,1,2.2,1.6,3.5,1.6c1.1,0,2.2-0.4,3.1-1.2c8.9-8,14-19.4,14-31.4C95,25.8,89.9,14.4,80.9,6.4z"/>
		<path class="st0" d="M48,0.6L19.7,21.7H2.8C1.2,21.7,0,23,0,24.5V51c0,1.6,1.3,2.8,2.8,2.8h16.9L48,75c1.9,1.4,4.5,0.1,4.5-2.3
			V2.8C52.5,0.5,49.8-0.8,48,0.6z"/>
	</g>
</g>
</svg>
