<?xml version="1.0" encoding="utf-8"?>
<!-- Generator: Adobe Illustrator 25.2.1, SVG Export Plug-In . SVG Version: 6.00 Build 0)  -->
<svg version="1.1" id="Layer_1" xmlns="http://www.w3.org/2000/svg" xmlns:xlink="http://www.w3.org/1999/xlink" x="0px" y="0px"
	 viewBox="0 0 192.5 143" style="enable-background:new 0 0 192.5 143;" xml:space="preserve">
<style type="text/css">
	.st0{fill:#FFFFFF;}
	.st1{fill:#231F20;}
</style>
<path class="st0" d="M167.5,89.6c-2.7,3.6-5.9,6.7-9.5,9.3c-3,2.1-11.3,5.9-11.3,5.9l14.1,24.6l-27-21c0,0-8.6,1.4-12.9,1.8
	s-8.7,0.9-13.2,1.7l-2.1,0.4c0,0-21.8-0.8-21.8-0.8l0,0c-4.2-0.5-8.4-1-12.4-1.9c-4.1-0.8-8.1-1.8-12-3c-3.9-1.2-7.6-2.7-11.3-4.3
	c-3.6-1.6-7.1-3.6-10.5-5.8c-0.9-0.5-1.7-1.1-2.5-1.7s-1.6-1.2-2.4-1.8c-1.5-1.3-3.1-2.5-4.5-3.8s-2.8-2.7-4.2-4.2l-2-2.3l-0.5-0.6
	l-0.3-0.3L21,81.6l-0.9-1.2c-2.3-3.2-3.9-6.9-4.6-10.8c-0.8-4.1-0.8-8.4-0.1-12.5c1.4-8.6,5.7-17.2,11.5-24.4c1.5-1.8,3-3.5,4.6-5.2
	c0.8-0.8,1.5-1.5,2.5-2.4l0.7-0.6l0.3-0.3l0,0l0.1-0.1l0.2-0.1c0.4-0.4,0.8-0.7,1.3-1.1c3.5-2.8,7.3-5.1,11.3-7
	c7.9-3.6,16.3-5.8,24.8-6.8c8.3-0.9,16.7-1.1,25-0.4c8.2,0.6,16.2,1.9,24.2,3.9c7.8,1.9,15.3,4.4,22.6,7.7c1.8,0.8,3.5,1.6,5.2,2.6
	c0.8,0.5,1.7,1,2.4,1.5c0.4,0.2,0.8,0.5,1.2,0.8l0.6,0.4l0.6,0.4c3.1,2.2,6.1,4.8,8.8,7.5c5.5,5.6,9.6,12.3,12,19.8
	c0.6,1.9,1,3.9,1.3,5.8c0.2,2,0.3,4.1,0.3,6.1c-0.1,2.1-0.4,4.2-0.8,6.2c-0.5,2.1-1.1,4.2-1.9,6.2c-0.4,1.1-0.8,1.9-1.3,3l-0.8,1.6
	l-0.2,0.4V83l0,0l-0.1,0.1l-0.4,0.8C170.1,85.9,168.9,87.8,167.5,89.6z"/>
<path class="st1" d="M83.6,111.4c0,0.1,32.9-0.7,37.2-1.2c2.6-0.3,6.8-0.9,9.7-1.3l3.2-0.5l25.1,19L146.4,105c0,0,7.9-3.4,11.5-6
	c3.6-2.6,6.9-5.7,9.5-9.3c1.4-1.8,2.6-3.7,3.7-5.7l0.4-0.8l0.1-0.1l0,0V83l0.2-0.4l0.8-1.6c0.5-1.1,0.9-2,1.3-3
	c0.8-2,1.4-4.1,1.9-6.2c0.4-2.1,0.7-4.1,0.8-6.3c0.2-4.1-0.3-8.1-1.5-12c-2.4-7.4-6.5-14.2-12-19.8c-2.7-2.8-5.6-5.3-8.8-7.5
	l-0.6-0.4l-0.6-0.4c-0.4-0.3-0.8-0.6-1.2-0.8c-0.8-0.5-1.6-1-2.4-1.5c-1.7-1-3.4-1.8-5.2-2.6c-7.3-3.3-14.9-5.8-22.6-7.7
	c-7.9-2-16-3.2-24.2-3.9c-8.3-0.7-16.7-0.5-25.1,0.4c-8.6,0.9-17,3.2-24.8,6.8c-4,1.9-7.8,4.2-11.2,7c-0.4,0.4-0.9,0.7-1.3,1.1
	l-0.2,0.1L35,24.3l0,0l-0.3,0.3L34,25.3c-1,0.8-1.7,1.6-2.5,2.4c-1.6,1.6-3.2,3.4-4.6,5.2C21,40,16.8,48.6,15.4,57.2
	c-0.7,4.1-0.6,8.4,0.2,12.5c0.4,2,1,3.9,1.8,5.7c0.8,1.8,1.8,3.4,2.9,5l0.9,1.2l0.2,0.3l0.3,0.3l0.5,0.6l2,2.3
	c1.4,1.4,2.7,2.8,4.2,4.2s3,2.6,4.5,3.8c0.8,0.6,1.6,1.2,2.4,1.8s1.6,1.2,2.5,1.7c3.3,2.2,6.8,4.1,10.5,5.8
	c3.7,1.7,7.5,3.1,11.3,4.3c3.9,1.2,7.9,2.2,12,3C75.4,110.4,79.5,110.9,83.6,111.4c-8.4-0.1-16.9-1-25.1-2.9
	c-4.1-0.9-8.1-2.1-12-3.5c-3.9-1.5-7.6-3.2-11.2-5.2c-3.6-2-7-4.3-10.2-6.9c-1.6-1.3-3.1-2.8-4.7-4.2l-2.1-2.2L17.7,86l-0.3-0.3
	l-0.3-0.3l-1-1.2c-1.4-1.7-2.5-3.6-3.5-5.6c-1-2.1-1.8-4.3-2.4-6.5c-1.1-4.8-1.4-9.8-0.7-14.7c1.4-10.1,6.1-20.2,12.5-28.5
	c1.6-2,3.3-4.1,5.1-6c0.9-0.9,1.9-2,2.8-2.8l0.7-0.6l0.3-0.3l0.4-0.4c0.5-0.4,1-0.9,1.5-1.3c4-3.3,8.4-6.1,13-8.4
	c8.6-4.1,17.8-6.8,27.3-8C82.1-0.1,91-0.3,99.8,0.4c8.5,0.6,17,1.9,25.3,3.9c8.2,1.9,16.2,4.6,23.8,8.1c1.9,0.9,3.8,1.9,5.6,2.9
	c0.9,0.5,1.8,1.1,2.8,1.7c0.5,0.3,0.9,0.6,1.3,0.9l0.7,0.5l0.6,0.5c3.4,2.5,6.6,5.3,9.5,8.4c3,3.1,5.6,6.6,7.9,10.3
	c2.4,3.9,4.2,8.1,5.4,12.4c1.3,4.8,1.8,9.7,1.5,14.6c-0.4,5.3-1.6,10.5-3.7,15.4c-0.5,1.2-1.1,2.6-1.7,3.8l-0.9,1.6l-0.2,0.4
	l-0.2,0.3l-0.1,0.2l-0.5,0.9c-1.4,2.3-2.9,4.6-4.6,6.7c-3.3,4.2-7.3,7.9-11.8,10.9c-2.2,1.5-6.6,4.1-6.6,4.1L171,143
	c0,0-36.5-30.1-39.3-29.9C115.7,114.1,99.6,113.5,83.6,111.4z"/>
<path class="st1" d="M192.4,47.8c0-0.2,0.1-0.5,0.1-0.7c0.1-0.7,0.1-1.3,0.1-2c0-0.5,0-0.9-0.1-1.4c0-0.5-0.1-1.1-0.2-1.6
	c-0.2-1.3-0.5-2.5-0.9-3.7c-0.4-1.4-1-2.7-1.6-4.1c-0.7-1.4-1.4-2.8-2.3-4.2c-0.9-1.4-1.8-2.8-2.9-4.1c-1.1-1.3-2.2-2.6-3.3-3.9
	c-2.3-2.4-4.8-4.6-7.5-6.6c-1.3-1-2.6-1.8-3.8-2.6c-1.2-0.7-2.4-1.4-3.6-2c-1-0.5-2.1-1-3.2-1.4c-0.9-0.3-1.7-0.6-2.6-0.8
	c-0.6-0.1-1.2-0.2-1.8-0.3l-0.6-0.1l0.6,0.1c0.5,0.2,1.1,0.3,1.6,0.6c0.7,0.3,1.5,0.6,2.4,1.1s1.9,1,2.9,1.7c2.4,1.5,4.7,3.2,6.9,5
	c1.2,1,2.4,2.1,3.6,3.2s2.4,2.3,3.5,3.5s2.3,2.4,3.3,3.7s2,2.6,2.9,3.9c0.9,1.2,1.7,2.5,2.5,3.9c0.4,0.6,0.7,1.3,1,1.9
	s0.6,1.2,0.9,1.8c0.5,1.1,0.9,2.2,1.2,3.4c0.2,0.5,0.3,1,0.4,1.5c0.1,0.4,0.2,0.9,0.3,1.3c0.1,0.6,0.2,1.3,0.2,1.9L192.4,47.8z"/>
<path class="st1" d="M24.1,16.6l-2,1.5l-1,0.8c-0.4,0.3-0.8,0.7-1.2,1.1c-0.8,0.8-1.8,1.7-2.7,2.7c-0.5,0.5-1,1.1-1.5,1.6
	c-0.5,0.6-1,1.2-1.5,1.8c-1.1,1.3-2.1,2.7-3,4.1c-0.5,0.8-0.9,1.5-1.4,2.3c-0.2,0.4-0.5,0.8-0.7,1.2s-0.4,0.8-0.6,1.3
	c-0.9,1.7-1.5,3.4-2.3,5.2c-0.5,1.8-1.2,3.5-1.5,5.3l-0.3,1.3c-0.1,0.4-0.1,0.9-0.2,1.3C4.1,49,4,49.9,3.9,50.7
	c-0.2,1.6-0.2,3.2-0.2,4.8c0,0.8,0,1.5,0,2.2s0.1,1.4,0.2,2C4,60.8,4.2,61.9,4.5,63c0.1,0.5,0.2,1,0.3,1.4l0.3,1.1
	c0.4,1.4,0.6,2.1,0.6,2.1s-0.1-0.8-0.3-2.3c0-0.4,0-0.8-0.1-1.2s-0.1-0.9-0.1-1.4c0-1-0.1-2.2-0.1-3.4v-2c0-0.7,0.1-1.4,0.1-2.1
	c0-1.5,0.2-3.1,0.5-4.7s0.5-3.3,1-4.9s1-3.3,1.5-5c0.6-1.7,1.2-3.3,2.1-4.9c0.8-1.6,1.5-3.2,2.4-4.6s1.7-2.9,2.7-4.1
	c0.5-0.6,0.9-1.3,1.3-1.9l1.3-1.7c0.8-1.1,1.7-2,2.4-2.9l1.1-1.2l0.9-1L24.1,16.6z"/>
<path class="st1" d="M179.7,90.6L179.7,90.6c0.1,0,0.1,0,0.1,0S179.8,90.5,179.7,90.6c-0.1,0.1-0.3,0.3-0.5,0.5l-1.8,1.8l-5.6,5.7
	c-1,1-2.1,2-3,2.9s-1.9,1.7-2.7,2.4c-0.7,0.5-1.3,1-2.1,1.5c-0.5,0.3-0.8,0.5-0.8,0.5c0.3,0,0.6-0.1,0.9-0.1
	c0.8-0.2,1.7-0.5,2.4-0.9c1.1-0.6,2.2-1.2,3.2-2c1.2-0.9,2.3-1.9,3.3-2.9c1-1,2-2.1,2.9-3.3c0.9-1.1,1.6-2.1,2.2-3.1
	c0.5-0.8,0.9-1.6,1.4-2.4c0.1-0.3,0.3-0.7,0.3-0.7s0-0.1,0-0.2L179.7,90.6L179.7,90.6z"/>
<path class="st1" d="M179.7,98.6c0,0-0.2,0.1-0.7,0.4s-1,0.7-1.7,1.2s-1.4,1.1-2.3,1.8c-0.4,0.3-0.8,0.7-1.3,1s-0.8,0.7-1.3,1
	c-0.9,0.7-1.7,1.4-2.5,2c-0.4,0.3-0.8,0.7-1.2,0.9s-0.7,0.5-1.1,0.8c-0.3,0.2-0.6,0.5-1,0.7l-0.7,0.5c-0.4,0.3-0.6,0.5-0.6,0.5
	c0.2,0,0.5,0,0.7-0.1c0.2,0,0.5-0.1,0.8-0.2c0.4-0.1,0.7-0.2,1.1-0.3l1.3-0.5c0.5-0.2,0.9-0.4,1.4-0.7c0.5-0.3,1-0.6,1.4-0.9
	c0.5-0.3,1-0.6,1.4-1s0.9-0.8,1.3-1.2s0.8-0.8,1.2-1.2c0.7-0.7,1.4-1.5,2-2.3c0.4-0.6,0.8-1.2,1.2-1.8
	C179.4,99,179.6,98.8,179.7,98.6z"/>
<path class="st1" d="M2.4,45.1c0,0-0.2,0.4-0.4,1c-0.1,0.3-0.3,0.7-0.5,1.1c-0.2,0.5-0.4,1-0.5,1.5l-0.4,1.8l-0.2,1
	c-0.1,0.3-0.1,0.7-0.1,1C0.2,53.1,0,53.8,0,54.5s0,1.4,0,2.2c0,0.7,0,1.4,0.1,2.1c0.1,0.7,0.1,1.3,0.2,2c0.1,0.6,0.2,1.2,0.3,1.8
	c0.1,0.5,0.2,1.1,0.4,1.6c0.2,0.5,0.3,0.9,0.4,1.3c0.1,0.3,0.3,0.7,0.4,1c0.3,0.5,0.5,0.8,0.5,0.8l-0.1-1c0-0.4-0.1-0.7-0.1-1.1
	c0.1-0.4,0-0.9,0-1.4s0-1.1,0-1.7s0-1.2,0-1.9s0-1.4,0-2s0-1.3,0-2s0-1.4,0-2.1s0-1.3,0-2c0-0.3,0-0.6,0-1c0-0.3,0-0.6,0-0.9
	c0-0.6,0-1.2,0-1.7s0-1,0.1-1.5s0.1-0.8,0.1-1.1C2.5,45.5,2.4,45.1,2.4,45.1z"/>
<path class="st1" d="M190.7,27.7c0,0-0.1-0.3-0.3-0.8c-0.2-0.7-0.5-1.5-0.9-2.1c-0.2-0.5-0.5-0.9-0.7-1.3c-0.3-0.5-0.6-0.9-0.9-1.4
	c-0.3-0.5-0.7-0.9-1.1-1.4c-0.4-0.5-0.8-0.9-1.2-1.3c-0.4-0.4-0.9-0.9-1.3-1.2s-0.9-0.7-1.4-1c-0.4-0.3-0.9-0.6-1.4-0.9
	c-0.4-0.3-0.9-0.5-1.3-0.7c-0.4-0.2-0.8-0.4-1.2-0.5c-0.4-0.1-0.7-0.2-0.9-0.3l-0.8-0.2c0,0,0.2,0.2,0.6,0.6l0.7,0.7
	c0.3,0.3,0.6,0.5,0.9,0.8s0.6,0.7,1,1s0.8,0.7,1.1,1.1s0.8,0.8,1.2,1.2l1.2,1.3c0.4,0.4,0.8,0.8,1.2,1.2s0.8,0.8,1.2,1.2
	c0.7,0.8,1.5,1.5,2.1,2.2c0.3,0.3,0.6,0.6,0.9,0.9c0.2,0.2,0.4,0.4,0.6,0.7L190.7,27.7z"/>
</svg>
