<svg id="Layer_1" data-name="Layer 1" xmlns="http://www.w3.org/2000/svg" viewBox="0 0 192.53 142.96"><defs><style>.cls-1{fill:#fff;}.cls-2{fill:#231f20;}</style></defs><path class="cls-1" d="M449.93,809.35l-.42-.76-.08-.13h0l0-.12-.21-.42-.83-1.64c-.48-1.06-.9-1.93-1.3-3a43.65,43.65,0,0,1-1.91-6.24,39.64,39.64,0,0,1-.83-6.24,39.21,39.21,0,0,1,.27-6.13,40.34,40.34,0,0,1,1.25-5.85,49.65,49.65,0,0,1,12-19.79,62.16,62.16,0,0,1,8.75-7.54l.59-.42.58-.4c.42-.27.84-.57,1.22-.8.76-.48,1.61-1,2.44-1.45,1.69-1,3.43-1.83,5.2-2.64a128.16,128.16,0,0,1,22.63-7.7,148.65,148.65,0,0,1,24.19-3.87,131.06,131.06,0,0,1,25,.42,81.59,81.59,0,0,1,24.85,6.76,56.27,56.27,0,0,1,11.27,7c.43.35.85.72,1.27,1.08l.17.13.08.08h0l.34.31.68.63c1,.85,1.68,1.58,2.5,2.37,1.62,1.67,3.16,3.39,4.64,5.16,5.81,7.19,10.09,15.79,11.48,24.41a34.89,34.89,0,0,1-.14,12.52A27.35,27.35,0,0,1,601,805.86l-.87,1.15-.18.25-.25.29-.51.57-2,2.3c-1.37,1.43-2.75,2.8-4.19,4.16s-3,2.57-4.52,3.83c-.78.58-1.6,1.16-2.39,1.75s-1.61,1.16-2.46,1.68a78.84,78.84,0,0,1-10.47,5.75,101.78,101.78,0,0,1-11.31,4.34,114.81,114.81,0,0,1-12,3c-4,.87-8.21,1.4-12.39,1.88h0c0,.09-21.81.84-21.81.84l-2.14-.38c-4.56-.8-8.91-1.19-13.24-1.65s-12.88-1.82-12.88-1.82l-27,21.05,14.11-24.63s-8.33-3.75-11.32-5.88a43.65,43.65,0,0,1-9.55-9.3A49.65,49.65,0,0,1,449.93,809.35Z" transform="translate(-428.54 -725.42)"/><path class="cls-2" d="M489.36,838.45c-2.78-.2-39.26,29.93-39.26,29.93L467,834.1s-4.43-2.61-6.61-4.08a52.57,52.57,0,0,1-11.77-10.9,57.48,57.48,0,0,1-4.57-6.71l-.5-.87-.13-.23-.17-.31-.22-.41-.87-1.64c-.53-1.19-1.17-2.54-1.68-3.78a47.78,47.78,0,0,1-3.66-15.38,44.93,44.93,0,0,1,1.53-14.61,49.15,49.15,0,0,1,5.41-12.44,61,61,0,0,1,7.9-10.27,67.62,67.62,0,0,1,9.53-8.36l.65-.46.68-.47c.41-.27.82-.57,1.31-.86,1-.61,1.85-1.16,2.78-1.67,1.83-1,3.7-2,5.61-2.9A121.48,121.48,0,0,1,496,729.66a155.81,155.81,0,0,1,25.32-3.86,128,128,0,0,1,26.54.73,90.19,90.19,0,0,1,27.26,8,65.11,65.11,0,0,1,13,8.36c.52.42,1,.87,1.52,1.31l.43.39.34.31.67.64c.87.79,1.86,1.84,2.8,2.77,1.8,1.94,3.53,4,5.14,6,6.46,8.39,11.17,18.41,12.53,28.55a38.85,38.85,0,0,1-.66,14.65,34.07,34.07,0,0,1-2.37,6.49A32.55,32.55,0,0,1,605,809.6l-1,1.24-.31.35-.26.27-.53.55-2.12,2.2c-1.55,1.4-3.05,2.89-4.69,4.15a67.89,67.89,0,0,1-10.22,6.91,83.73,83.73,0,0,1-11.21,5.19A95.67,95.67,0,0,1,562.63,834a119.89,119.89,0,0,1-25.19,2.81c4.18-.48,8.34-1,12.38-1.87a114.85,114.85,0,0,0,12-3,101,101,0,0,0,11.31-4.34,78.33,78.33,0,0,0,10.48-5.75c.85-.51,1.65-1.09,2.45-1.68s1.62-1.14,2.4-1.75c1.53-1.26,3-2.52,4.52-3.83s2.81-2.77,4.19-4.16l2-2.3.51-.57.25-.29.19-.25.86-1.15a30,30,0,0,0,2.87-5,29.18,29.18,0,0,0,1.77-5.7,35.12,35.12,0,0,0,.15-12.52c-1.43-8.61-5.67-17.22-11.49-24.4q-2.21-2.7-4.63-5.17c-.83-.79-1.55-1.52-2.5-2.37l-.69-.63-.33-.31h0l-.09-.08-.16-.13c-.43-.36-.85-.73-1.28-1.08a55.41,55.41,0,0,0-11.2-7,81.66,81.66,0,0,0-24.85-6.76,132,132,0,0,0-25.06-.43,149.82,149.82,0,0,0-24.18,3.88,128.26,128.26,0,0,0-22.64,7.7c-1.76.81-3.51,1.69-5.19,2.64-.84.46-1.69,1-2.44,1.45-.39.23-.81.52-1.23.8l-.58.4-.58.42a60.43,60.43,0,0,0-8.75,7.54,49.67,49.67,0,0,0-12,19.79,36.42,36.42,0,0,0-1.52,12,41,41,0,0,0,.83,6.25,44.87,44.87,0,0,0,1.92,6.23c.4,1,.81,1.92,1.29,3l.84,1.64.2.42,0,.11h0l.08.14.41.76a51.37,51.37,0,0,0,3.71,5.65,43.61,43.61,0,0,0,9.55,9.29c3.57,2.56,11.48,6,11.48,6l-12.37,22.47,25.1-19,3.16.48c2.88.44,7.08,1.05,9.72,1.34,4.33.49,37.17,1.26,37.19,1.18A248.9,248.9,0,0,1,489.36,838.45Z" transform="translate(-428.54 -725.42)"/><path class="cls-2" d="M428.73,772.32a16.86,16.86,0,0,1,.19-1.88,11.3,11.3,0,0,1,.25-1.29c.11-.46.2-1,.37-1.48a27,27,0,0,1,1.19-3.37c.26-.57.57-1.16.86-1.79s.65-1.26,1-1.89a44.82,44.82,0,0,1,2.45-3.87c.89-1.31,1.9-2.6,2.94-3.87s2.17-2.49,3.31-3.72,2.31-2.42,3.52-3.51,2.39-2.19,3.6-3.17a69,69,0,0,1,6.85-5c1.05-.67,2-1.24,2.94-1.71s1.67-.83,2.4-1.12a15.5,15.5,0,0,1,1.62-.56l.6-.14-.63.06a11.78,11.78,0,0,0-1.77.25,20,20,0,0,0-2.62.75,26.77,26.77,0,0,0-3.22,1.36,38.21,38.21,0,0,0-3.61,2c-1.24.78-2.53,1.61-3.79,2.57a58.65,58.65,0,0,0-7.46,6.62c-1.17,1.24-2.28,2.55-3.34,3.88a44.93,44.93,0,0,0-2.87,4.1,36.81,36.81,0,0,0-2.29,4.18,30.74,30.74,0,0,0-1.58,4.06,23.23,23.23,0,0,0-.85,3.69,14.77,14.77,0,0,0-.18,1.63,12.5,12.5,0,0,0-.07,1.38,16.14,16.14,0,0,0,.09,2,4.85,4.85,0,0,0,.07.7Z" transform="translate(-428.54 -725.42)"/><path class="cls-2" d="M598.67,743.81l.92,1,1.07,1.17c.74.89,1.58,1.77,2.41,2.87l1.33,1.69c.44.6.87,1.22,1.33,1.86.95,1.26,1.75,2.7,2.68,4.13s1.62,3,2.43,4.61a31.47,31.47,0,0,1,2.08,4.9c.55,1.68,1.05,3.37,1.52,5s.72,3.33,1,4.93.45,3.2.49,4.65c0,.73.1,1.45.11,2.13v2c0,1.28-.08,2.42-.13,3.44,0,.52,0,1-.09,1.44s-.09.84-.13,1.21c-.17,1.49-.26,2.3-.26,2.3s.23-.78.64-2.14l.32-1.14c.11-.42.18-.89.29-1.39a29.83,29.83,0,0,0,.52-3.39c.06-.64.15-1.29.2-2s0-1.43.05-2.18a42.32,42.32,0,0,0-.23-4.77c-.09-.83-.23-1.69-.37-2.55-.06-.43-.1-.87-.2-1.3l-.31-1.32c-.37-1.77-1-3.55-1.53-5.32-.71-1.74-1.38-3.5-2.25-5.15-.21-.42-.41-.84-.62-1.25s-.47-.81-.7-1.2c-.47-.78-.91-1.57-1.39-2.33a46.48,46.48,0,0,0-3-4.14c-.51-.63-1-1.27-1.49-1.83s-1-1.09-1.49-1.62c-.94-1-1.9-1.9-2.73-2.67-.42-.39-.8-.76-1.18-1.07l-1-.83L597,742Z" transform="translate(-428.54 -725.42)"/><path class="cls-2" d="M441.39,816l-.06-.08c-.05.1,0,.1,0,.15s.18.42.33.72a26.16,26.16,0,0,0,1.35,2.36c.61,1,1.36,2,2.23,3.14a41.08,41.08,0,0,0,2.91,3.28,31.26,31.26,0,0,0,3.29,2.91,18.44,18.44,0,0,0,3.21,2,10.44,10.44,0,0,0,2.42.87,4.94,4.94,0,0,0,.93.12s-.31-.18-.84-.52a25.42,25.42,0,0,1-2.06-1.52c-.82-.67-1.78-1.47-2.71-2.39s-2-1.92-3-2.94l-5.56-5.69L442,816.58c-.23-.23-.42-.4-.54-.53s-.15,0-.1,0,.06,0,.06,0l.06,0Z" transform="translate(-428.54 -725.42)"/><path class="cls-2" d="M441.87,824.67a16.74,16.74,0,0,0,1.21,1.77,24,24,0,0,0,2,2.3c.38.41.78.79,1.21,1.19s.88.8,1.31,1.16.92.72,1.39,1a16.07,16.07,0,0,0,1.42.89,8.45,8.45,0,0,0,1.36.73l1.26.5a4.46,4.46,0,0,0,1.08.31c.32.07.6.12.83.15a7.17,7.17,0,0,0,.72.08s-.23-.19-.64-.49l-.74-.51a7.6,7.6,0,0,1-.95-.65c-.33-.26-.68-.55-1.07-.8s-.75-.62-1.17-.92c-.81-.61-1.65-1.32-2.51-2-.44-.32-.86-.68-1.27-1s-.86-.65-1.25-1c-.82-.66-1.6-1.28-2.27-1.78s-1.25-.91-1.68-1.19-.67-.43-.67-.43A8,8,0,0,0,441.87,824.67Z" transform="translate(-428.54 -725.42)"/><path class="cls-2" d="M618.68,771.58c0,.36,0,.7.09,1.14s.09,1,.1,1.45,0,1.09,0,1.67a8.37,8.37,0,0,1,.05.89c0,.31,0,.63,0,.95,0,.65,0,1.3,0,2s0,1.37,0,2.06,0,1.36,0,2,0,1.35,0,2,0,1.28,0,1.86,0,1.15,0,1.66-.06,1,0,1.41a10.46,10.46,0,0,1-.06,1.09l-.06,1s.17-.28.45-.78a5.23,5.23,0,0,0,.44-1c.14-.38.29-.81.44-1.3a12.24,12.24,0,0,0,.41-1.61,18.39,18.39,0,0,0,.33-1.84c.06-.65.11-1.33.19-2a14.69,14.69,0,0,0,.07-2.11c0-.72,0-1.44,0-2.15s-.15-1.41-.23-2.09a8.49,8.49,0,0,0-.11-1l-.23-1-.43-1.79a9.47,9.47,0,0,0-.48-1.48c-.17-.43-.33-.8-.45-1.11-.27-.61-.44-1-.44-1S618.65,770.93,618.68,771.58Z" transform="translate(-428.54 -725.42)"/><path class="cls-2" d="M431.13,752.62a7.07,7.07,0,0,1,.63-.67c.26-.26.56-.54.86-.86.61-.64,1.38-1.34,2.12-2.15.38-.41.8-.78,1.2-1.2s.8-.84,1.23-1.23l1.22-1.25c.43-.38.82-.78,1.21-1.17s.76-.78,1.14-1.11.71-.66,1-1,.61-.58.89-.83l.68-.65c.38-.39.59-.63.59-.63l-.83.2c-.26.08-.58.17-.93.3a7.86,7.86,0,0,0-1.16.48c-.41.2-.85.43-1.3.7a8.33,8.33,0,0,0-1.38.89c-.45.35-1,.66-1.38,1s-.87.82-1.3,1.24a13,13,0,0,0-1.23,1.34,14.69,14.69,0,0,0-1.09,1.38c-.35.47-.64.95-.93,1.4a11.33,11.33,0,0,0-.73,1.32,11.73,11.73,0,0,0-.9,2.13c-.18.53-.27.85-.27.85Z" transform="translate(-428.54 -725.42)"/></svg>