<svg width="162" height="162" viewBox="0 0 162 162" xmlns="http://www.w3.org/2000/svg"><g fill="none" fill-rule="evenodd"><path d="M82.278 150C119.108 150 150 119.108 150 82.278 150 42.892 119.108 12 82.278 12 42.892 12 12 42.892 12 82.278 12 119.108 42.892 150 82.278 150zm-18.014-41.554V53.554L108.446 81l-44.182 27.446z" fill-opacity=".6" fill="#000"/><path d="M81 162c44.735 0 81-36.265 81-81S125.735 0 81 0 0 36.265 0 81s36.265 81 81 81zm0-12c38.108 0 69-30.892 69-69 0-38.108-30.892-69-69-69-38.108 0-69 30.892-69 69 0 38.108 30.892 69 69 69z" fill-opacity=".7" fill="#FFF8D0"/><path fill-opacity=".783" fill="#FFFAD8" d="M64.264 108.446V53.554L108.446 81z"/></g></svg>